<svg xmlns="http://www.w3.org/2000/svg" id="Layer_1" data-name="Layer 1" viewBox="0 0 696.46 779.83">
  <defs>
    <style>
      .cls-1 {
        fill: #fdd00b;
      }

      .cls-1, .cls-2, .cls-3, .cls-4, .cls-5, .cls-6 {
        stroke-width: 0px;
      }

      .cls-2 {
        fill: #0095d5;
      }

      .cls-3 {
        fill: #00ace8;
      }

      .cls-4 {
        fill: #4ec9f5;
      }

      .cls-5 {
        fill: #007fc4;
      }

      .cls-6 {
        fill: #00bdf2;
      }
    </style>
  </defs>
  <path class="cls-3" d="M368.57,154.46c20.28-5.45,37.23-18.44,47.74-36.6,10.48-18.16,13.24-39.36,7.81-59.62-5.4-20.22-18.4-37.15-36.57-47.7-18.21-10.47-39.43-13.27-59.64-7.85-20.22,5.42-37.16,18.44-47.68,36.61-10.5,18.18-13.29,39.39-7.88,59.61,5.44,20.24,18.44,37.2,36.58,47.67,18.17,10.46,39.32,13.3,59.63,7.87Z"/>
  <path class="cls-2" d="M638.27,310.18c20.32-5.44,37.2-18.43,47.7-36.62,21.62-37.53,8.73-85.65-28.79-107.33-18.15-10.46-39.28-13.26-59.58-7.85-20.29,5.47-37.24,18.46-47.74,36.6-21.64,37.52-8.66,85.65,28.74,107.27,18.24,10.53,39.35,13.4,59.66,7.93Z"/>
  <path class="cls-6" d="M39.32,302.27c18.2,10.61,39.37,13.29,59.67,7.88,20.23-5.38,37.18-18.36,47.62-36.59,10.58-18.17,13.32-39.33,7.83-59.57-5.4-20.27-18.32-37.22-36.56-47.75-18.14-10.47-39.3-13.27-59.61-7.82-20.28,5.41-37.19,18.46-47.66,36.59C.1,213.22-2.66,234.33,2.79,254.6c5.45,20.3,18.41,37.21,36.54,47.67Z"/>
  <path class="cls-5" d="M578.54,613.59c18.2,10.61,39.37,13.29,59.67,7.88,20.22-5.39,37.18-18.36,47.65-36.57,10.55-18.19,13.29-39.35,7.81-59.58-5.4-20.27-18.35-37.24-36.58-47.76-18.14-10.47-39.3-13.27-59.61-7.82-20.26,5.42-37.16,18.48-47.63,36.61-10.55,18.2-13.32,39.3-7.86,59.58,5.45,20.3,18.41,37.22,36.54,47.67Z"/>
  <path class="cls-1" d="M425.61,478.88l.19.35c-29.72,25.64-47.66,58.74-47.65,94.91,0,26.16,9.37,50.54,25.66,71.69.15.33.34.48.66.64,14.37,14.7,22.45,34.25,22.26,54.91,0,20.97-8.06,40.67-22.92,55.52-14.86,14.86-34.53,22.94-55.51,22.93-21.01,0-40.71-8.08-55.62-22.93-14.81-14.85-23.05-34.55-23.05-55.52.02-20.71,8.08-40.38,22.45-54.91.32-.16.49-.33.63-.65,16.18-21.14,25.71-45.52,25.69-71.67.02-36.18-18.07-69.26-47.61-94.94l.15-.18c-25-21.45-40.85-53.45-40.83-89.13,0-65.22,52.93-117.99,118.18-118.02,65.07-.01,118.01,52.79,118.05,118.03-.02,35.51-15.87,67.47-40.72,88.96Z"/>
  <path class="cls-4" d="M154.45,525.33c5.41,20.29,2.65,41.46-7.83,59.64-10.48,18.15-27.46,31.14-47.72,36.57-20.21,5.43-41.38,2.65-59.59-7.81-18.17-10.54-31.21-27.52-36.61-47.73-5.41-20.22-2.62-41.39,7.87-59.6,10.5-18.19,27.46-31.19,47.68-36.62,20.25-5.4,41.44-2.64,59.58,7.84,18.14,10.5,31.18,27.4,36.62,47.72Z"/>
</svg>


